# xmcd
#
# Track frame offsets:
#	150
#	16051
#	33105
#	46733
#	59843
#	74455
#	88739
#	102721
#	117133
#	132869
#	144390
#	159820
#	171618
#	190095
#	199930
#
# Disc length: 2831 seconds
#
# Revision: 1
# Processed by: cddbd v1.5.2PL0 Copyright (c) Steve Scherf et al.
# Submitted via: EZCDAudioConverter 7.1.5.1
#
DISCID=d10b0d0f
DTITLE=Various Artist - Volkstümliche Hüttengaudi CD1
DYEAR=1900
DGENRE=
TTITLE0=Orig. Südtiroler Spitzbuam - Feiern, bis die Hütte kracht
TTITLE1=Die Mayrhofer - Schei-widei-wie-du
TTITLE2=Alpenland Sepp und Co - Aufdraht wia d Lausbuam
TTITLE3=Die Grubertaler - Zwoa Bliamaln stehn am Wiesenrand
TTITLE4=Joe Williams Band - Uns zigt koaner die Lederhosen aus
TTITLE5=Zellberg Buam - Heustadizit
TTITLE6=Geri der Klostertaler - Gimm Gimme Edelweiss
TTITLE7=Alex Schuler - Schatzi schenk mir ein Foto
TTITLE8=Ursprung Buam - A Steierermadl a Tiroler Bua
TTITLE9=Zillertaler Haderlumpen - Holladie
TTITLE10=Sepp der Partyrocker - Auf und nieder
TTITLE11=Trio Alpin - Hey DJ spiel an Boarisch n
TTITLE12=Various Artist - A Wahnsinnsparty
TTITLE13=Die Edelseer - Teifl eini Teifl aussi
TTITLE14=Alex und Die Grödmer Alphornbläser - A Narrischer a Boarischer
EXTD=
EXTT0=
EXTT1=
EXTT2=
EXTT3=
EXTT4=
EXTT5=
EXTT6=
EXTT7=
EXTT8=
EXTT9=
EXTT10=
EXTT11=
EXTT12=
EXTT13=
EXTT14=
PLAYORDER=
